PathFileType   4   (X/Y/Z)
DataRate	CameraRate	NumFrames	NumMarkers	Units	OrigDataRate	OrigDataStartFrame	OrigNumFrames
120.0	120.0	12	37	mm	120.0	15	116
Frame#	Time	midhip	hip_r	hip_l	knee_r	knee_l	ankle_r	ankle_l	midasis	asis_r	asis_l	psis_r	psis_l	epicondLat_r	epicondLat_l	epicondMed_r	epicondMed_l	malleolusLat_r	malleolusLat_l	malleolusMedv_r	malleolusMedv_l	neck	subclavicle_r	subclavicle_l	sternalnotch	xyphoidprocess	thighwand_r	thighwand_l	upperleg1_r	upperleg1_l	upperleg2_r	upperleg2_l	shankwand_r	shankwand_l	lowerleg1_r	lowerleg1_l	toe_r	toe_l
 	 	X1	Y1	Z1	X2	Y2	Z2	X3	Y3	Z3	X4	Y4	Z4	X5	Y5	Z5	X6	Y6	Z6	X7	Y7	Z7	X8	Y8	Z8	X9	Y9	Z9	X10	Y10	Z10	X11	Y11	Z11	X12	Y12	Z12	X13	Y13	Z13	X14	Y14	Z14	X15	Y15	Z15	X16	Y16	Z16	X17	Y17	Z17	X18	Y18	Z18	X19	Y19	Z19	X20	Y20	Z20	X21	Y21	Z21	X22	Y22	Z22	X23	Y23	Z23	X24	Y24	Z24	X25	Y25	Z25	X26	Y26	Z26	X27	Y27	Z27	X28	Y28	Z28	X29	Y29	Z29	X30	Y30	Z30	X31	Y31	Z31	X32	Y32	Z32	X33	Y33	Z33	X34	Y34	Z34	X35	Y35	Z35	X36	Y36	Z36	X37	Y37	Z37

	15	0.25000	680.179	824.039	-313.916	671.026	800.568	-237.110	655.446	812.642	-387.956	760.787	428.532	-219.515	728.638	430.886	-375.266	487.592	189.150	-245.834	682.938	68.043	-356.569	755.911	877.720	-313.347	764.116	868.368	-196.223	747.705	887.073	-430.471	568.148	939.933	-261.105	559.459	939.701	-315.566	766.675	432.674	-161.963	735.199	430.228	-432.890	776.478	426.378	-279.369	738.608	446.314	-316.138	475.712	198.640	-208.837	672.801	67.327	-395.257	502.688	187.038	-277.873	690.361	78.793	-330.775	637.613	1376.281	-303.910	765.583	1321.982	-261.706	758.027	1315.910	-367.365	758.379	1315.403	-313.527	800.860	1247.670	-316.537	894.394	599.487	-250.587	749.520	563.082	-527.235	822.036	635.302	-192.603	682.781	606.699	-470.529	832.637	548.195	-189.606	703.942	522.799	-454.713	525.933	255.482	-133.442	787.658	185.230	-348.145	536.707	261.351	-176.537	746.304	186.646	-358.295	513.224	90.690	-221.777	790.092	41.542	-377.074
	16	0.25833	686.745	823.406	-313.874	679.242	801.901	-237.418	663.424	813.349	-388.287	778.120	431.543	-220.634	731.748	430.782	-375.140	510.873	185.360	-247.409	682.954	68.048	-356.300	764.076	878.645	-314.121	772.455	869.793	-197.125	755.697	887.496	-431.117	576.511	941.161	-261.517	567.793	940.824	-315.936	783.546	435.602	-163.031	737.949	429.908	-432.801	794.239	430.144	-280.586	741.708	446.050	-316.055	498.635	194.628	-210.472	673.033	67.370	-395.044	526.374	183.269	-279.240	690.768	78.816	-330.950	647.239	1377.330	-304.723	774.889	1323.202	-262.619	767.130	1316.776	-368.251	767.676	1316.331	-314.152	809.990	1248.668	-317.265	907.442	606.064	-250.203	753.299	562.588	-527.338	833.981	639.778	-192.338	687.054	606.845	-470.537	846.821	552.653	-189.790	707.476	522.619	-454.634	547.233	252.901	-134.967	788.309	184.606	-347.460	558.268	258.835	-178.006	747.281	187.001	-358.528	541.104	88.971	-224.432	790.189	41.475	-377.029
	17	0.26667	695.832	825.219	-314.039	687.394	803.090	-237.666	671.358	813.888	-388.560	795.126	434.635	-221.784	734.715	430.626	-374.934	534.546	181.095	-248.795	683.208	68.023	-355.952	772.178	879.423	-314.834	780.711	871.094	-198.018	763.644	887.753	-431.650	584.763	942.239	-261.872	576.097	941.765	-316.250	800.082	438.570	-164.130	740.688	429.563	-432.616	812.044	433.542	-280.769	745.786	446.233	-316.155	522.010	190.047	-211.881	673.334	67.396	-394.709	550.271	179.190	-280.550	691.448	78.776	-330.935	656.698	1378.345	-304.900	784.072	1324.011	-263.031	776.818	1317.575	-368.621	776.944	1317.094	-314.764	819.356	1249.429	-317.453	920.149	612.531	-249.751	757.319	562.055	-527.272	845.400	644.113	-191.901	691.802	607.273	-470.615	860.756	557.202	-189.491	711.599	522.906	-454.689	568.891	249.685	-136.244	789.090	183.855	-347.090	579.794	255.572	-179.298	747.909	186.184	-358.423	569.431	86.928	-226.724	790.286	41.440	-376.969
	18	0.27500	703.613	825.499	-313.456	695.502	804.136	-237.843	679.274	814.255	-388.763	811.768	437.778	-222.960	737.478	430.419	-374.669	558.606	176.399	-250.005	683.672	67.975	-355.535	780.237	880.055	-315.471	788.902	872.270	-198.868	771.572	887.841	-432.075	592.922	943.166	-262.179	584.374	942.522	-316.514	816.268	441.550	-165.258	743.379	429.196	-432.355	828.811	437.543	-281.489	748.744	446.519	-315.338	545.830	184.953	-213.078	673.674	67.415	-394.262	573.881	175.882	-282.158	692.082	78.529	-330.504	666.174	1379.045	-305.260	793.111	1324.319	-263.460	786.218	1318.251	-368.958	786.188	1317.722	-315.350	828.412	1249.834	-317.933	932.494	618.789	-249.277	761.607	561.485	-527.039	856.988	648.433	-191.285	697.286	607.585	-470.581	874.483	561.634	-189.393	715.617	523.048	-454.239	590.907	245.904	-137.297	790.021	183.001	-347.035	600.792	252.096	-180.328	748.450	185.240	-357.935	598.192	84.602	-228.584	790.377	41.447	-376.894
	19	0.28333	711.411	825.589	-312.521	703.602	805.040	-237.936	687.205	814.452	-388.885	828.015	440.927	-224.148	740.021	430.167	-374.367	583.060	171.308	-251.046	684.281	67.918	-355.072	788.286	880.547	-316.022	797.062	873.326	-199.646	779.510	887.767	-432.398	601.027	943.940	-262.447	592.631	943.100	-316.739	832.097	444.509	-166.403	746.008	428.811	-432.041	843.090	442.347	-282.699	751.821	447.166	-313.976	570.095	179.400	-214.081	674.022	67.438	-393.731	597.946	172.149	-283.443	692.552	78.120	-329.989	675.487	1379.437	-306.161	802.084	1324.597	-264.051	795.278	1318.639	-369.559	795.412	1318.207	-315.883	837.319	1250.109	-318.561	944.469	624.757	-248.833	766.171	560.887	-526.655	868.535	652.690	-190.258	702.396	607.714	-470.720	887.226	565.961	-189.319	719.887	522.648	-453.537	613.273	241.638	-138.152	791.094	182.094	-347.234	622.350	248.231	-181.013	749.758	186.016	-357.855	627.368	82.044	-229.953	790.448	41.489	-376.810
	20	0.29167	719.794	826.135	-311.731	711.742	805.803	-237.932	695.180	814.484	-388.906	843.847	444.028	-225.320	742.371	429.881	-374.044	607.923	165.856	-251.924	684.953	67.869	-354.586	796.359	880.906	-316.477	805.243	874.263	-200.329	787.475	887.548	-432.625	609.110	944.557	-262.688	600.876	943.510	-316.936	847.569	447.402	-167.538	748.587	428.416	-431.691	857.284	446.774	-283.741	755.577	446.430	-313.694	594.807	173.440	-214.904	674.350	67.477	-393.153	623.441	167.273	-283.926	692.838	77.786	-329.417	684.338	1379.907	-306.799	811.216	1325.091	-264.459	804.781	1318.969	-370.369	804.625	1318.543	-316.381	846.736	1250.569	-318.938	956.082	630.379	-248.469	770.997	560.271	-526.146	879.719	656.434	-189.260	707.304	607.960	-470.113	899.686	570.242	-189.222	724.336	522.235	-453.038	635.978	236.964	-138.837	792.284	181.194	-347.586	645.325	244.020	-181.080	751.562	184.402	-358.101	656.936	79.315	-230.784	790.487	41.552	-376.716
	21	0.30000	728.240	826.647	-311.186	719.956	806.425	-237.815	703.207	814.364	-388.809	859.237	447.025	-226.451	744.591	429.573	-373.711	633.214	160.083	-252.636	685.608	67.838	-354.101	804.479	881.136	-316.834	813.489	875.077	-200.904	795.470	887.195	-432.765	617.197	945.021	-262.902	609.109	943.772	-317.114	862.683	450.188	-168.640	751.148	428.018	-431.318	873.245	449.871	-283.710	758.286	444.657	-313.689	619.973	167.129	-215.554	674.636	67.542	-392.566	649.102	161.816	-284.409	693.161	77.729	-328.684	693.246	1380.412	-307.378	820.441	1325.452	-264.852	814.093	1319.316	-370.908	813.829	1318.749	-316.866	856.011	1250.926	-319.367	967.346	635.615	-248.235	776.052	559.652	-525.534	890.703	659.693	-189.089	712.972	607.897	-469.143	912.637	574.518	-189.133	728.584	521.915	-452.615	659.006	231.950	-139.387	793.551	180.342	-347.981	668.562	239.539	-181.531	753.552	184.631	-358.285	686.874	76.483	-231.055	790.489	41.618	-376.609
	22	0.30833	737.017	827.350	-310.908	728.261	806.906	-237.586	711.287	814.103	-388.592	874.157	449.861	-227.527	746.777	429.247	-373.378	658.960	154.034	-253.176	686.181	67.830	-353.638	812.659	881.236	-317.097	821.825	875.757	-201.359	803.493	886.716	-432.834	625.305	945.340	-263.092	617.328	943.909	-317.276	877.422	452.825	-169.695	753.746	427.615	-430.935	887.966	452.703	-283.864	760.534	443.685	-313.580	645.612	160.524	-216.032	674.868	67.632	-392.004	674.215	156.106	-285.280	693.643	77.822	-328.073	702.675	1380.565	-308.225	829.623	1325.473	-265.451	823.197	1319.409	-371.157	823.051	1318.822	-317.333	865.023	1250.914	-319.850	978.267	640.437	-248.172	781.285	559.044	-524.842	901.415	662.820	-189.289	718.629	607.822	-468.756	924.902	578.108	-189.270	732.859	522.027	-452.494	682.352	226.658	-139.820	794.845	179.554	-348.319	691.291	234.561	-182.717	754.409	184.458	-358.148	717.161	73.621	-230.781	790.466	41.673	-376.489
	23	0.31667	745.791	827.929	-310.738	736.654	807.245	-237.258	719.418	813.716	-388.267	888.576	452.486	-228.545	749.027	428.893	-373.049	685.204	147.762	-253.538	686.624	67.845	-353.211	820.904	881.205	-317.269	830.258	876.288	-201.683	811.551	886.122	-432.855	633.440	945.524	-263.252	625.536	943.942	-317.415	891.764	455.272	-170.699	756.433	427.189	-430.549	900.939	456.011	-285.099	762.484	443.209	-313.549	671.758	153.685	-216.335	675.041	67.743	-391.497	699.923	150.295	-285.866	694.085	77.926	-327.619	712.082	1380.755	-308.735	838.661	1325.348	-266.079	832.591	1319.200	-371.422	832.315	1318.731	-317.760	874.047	1250.639	-320.085	988.849	644.816	-248.317	786.638	558.454	-524.095	911.566	665.663	-188.968	723.617	607.957	-468.614	936.267	581.122	-189.605	736.999	522.405	-452.552	706.023	221.143	-140.137	796.121	178.817	-348.521	714.303	229.299	-183.451	754.849	183.788	-357.952	747.781	70.802	-230.015	790.435	41.709	-376.361
	24	0.32500	753.863	827.760	-310.569	745.123	807.441	-236.843	727.594	813.220	-387.847	902.457	454.853	-229.510	751.402	428.497	-372.730	711.983	141.331	-253.712	686.923	67.882	-352.834	829.212	881.040	-317.355	838.781	876.656	-201.862	819.642	885.424	-432.848	641.605	945.581	-263.368	633.751	943.886	-317.518	905.674	457.492	-171.659	759.232	426.724	-430.172	913.979	458.852	-285.848	763.714	442.024	-313.313	698.447	146.679	-216.453	675.166	67.875	-391.068	726.744	144.271	-285.940	693.975	78.204	-327.064	721.286	1380.986	-309.015	847.827	1325.103	-266.296	841.975	1319.124	-371.826	841.609	1318.465	-318.130	883.151	1250.387	-320.418	999.086	648.725	-248.690	792.053	557.883	-523.319	921.405	668.179	-188.882	729.075	608.091	-468.117	947.440	584.216	-189.919	741.037	522.060	-452.234	730.028	215.461	-140.324	797.349	178.114	-348.540	737.907	223.672	-183.497	756.542	183.926	-357.901	778.707	68.100	-228.840	790.418	41.724	-376.232
	25	0.33333	762.331	827.952	-310.526	753.639	807.495	-236.364	735.791	812.631	-387.354	915.776	456.928	-230.439	753.927	428.053	-372.425	739.304	134.818	-253.681	687.085	67.941	-352.517	837.563	880.742	-317.366	847.375	876.851	-201.899	827.752	884.633	-432.834	649.803	945.516	-263.423	641.990	943.749	-317.565	919.122	459.453	-172.591	762.148	426.213	-429.810	925.779	461.554	-287.125	765.156	440.977	-312.979	725.689	139.585	-216.373	675.258	68.023	-390.729	753.760	138.681	-285.966	693.354	78.599	-326.519	730.563	1380.932	-309.546	857.239	1324.546	-266.510	851.265	1318.798	-372.469	850.940	1318.047	-318.434	892.312	1249.849	-321.040	1008.982	652.136	-249.293	797.482	557.325	-522.528	931.527	670.438	-189.311	734.890	607.958	-467.806	958.298	586.937	-190.773	745.300	521.573	-451.953	754.371	209.671	-140.361	798.509	177.418	-348.364	761.494	218.009	-183.233	758.363	184.142	-357.744	809.904	65.597	-227.365	790.434	41.726	-376.110
	26	0.34167	770.530	827.722	-310.356	762.169	807.406	-235.845	743.984	811.966	-386.813	928.526	458.675	-231.352	756.600	427.564	-372.136	767.148	128.306	-253.434	687.135	68.018	-352.258	845.934	880.315	-317.318	856.007	876.865	-201.815	835.860	883.765	-432.821	658.047	945.335	-263.392	650.264	943.529	-317.535	932.088	461.119	-173.513	765.169	425.656	-429.468	936.912	464.345	-289.577	767.863	441.890	-311.845	753.468	132.491	-216.079	675.335	68.185	-390.478	780.937	133.042	-286.009	693.226	78.714	-326.249	739.862	1380.762	-310.134	866.626	1323.650	-266.799	860.808	1318.070	-372.821	860.298	1317.498	-318.681	901.498	1248.891	-321.395	1018.552	655.018	-250.116	802.893	556.763	-521.730	941.396	672.031	-189.547	740.393	607.527	-468.067	968.844	589.163	-192.092	749.930	522.065	-451.665	779.035	203.837	-140.220	799.597	176.708	-348.010	785.294	212.375	-183.200	759.144	183.511	-357.582	841.330	63.365	-225.714	790.489	41.721	-375.999
